<?xml version="1.0" encoding="utf-8"?>
<!-- Generator: Adobe Illustrator 21.0.0, SVG Export Plug-In . SVG Version: 6.00 Build 0)  -->
<svg version="1.1" id="Layer_1" xmlns="http://www.w3.org/2000/svg" xmlns:xlink="http://www.w3.org/1999/xlink" x="0px" y="0px"
	 viewBox="0 0 417.3 318" style="enable-background:new 0 0 417.3 318;" xml:space="preserve">
<style type="text/css">
	.st0{fill:#FFFFFF;}
	.st1{fill:#F79226;}
</style>
<g>
	<g>
		<g id="XMLID_152_">
			<g id="XMLID_158_">
				<path class="st0" d="M157.5,132.7c23.8,0,37.8,18.6,37.8,42.2v3.1h-63.8c1,14.8,11.4,27.2,28.4,27.2c9,0,18.1-3.6,24.3-9.9
					l5.9,8c-7.8,7.8-18.4,12.1-31.3,12.1c-23.3,0-40.1-16.8-40.1-41.4C118.7,151.2,135,132.7,157.5,132.7z M131.6,169.1h51.7
					c-0.2-11.7-8-26.3-25.9-26.3C140.6,142.8,132.3,157,131.6,169.1z"/>
			</g>
			<g id="XMLID_156_">
				<path class="st0" d="M251.5,132.7c14.4,0,22.8,5.9,28.9,13.7l-8.2,7.5c-5.2-7.2-11.9-10.3-20.1-10.3
					c-16.8,0-27.2,12.9-27.2,30.3c0,17.5,10.4,30.5,27.2,30.5c8.2,0,14.8-3.3,20.1-10.3l8.2,7.5c-6,7.8-14.5,13.7-28.9,13.7
					c-23.5,0-39.3-17.9-39.3-41.4C212.2,150.7,228,132.7,251.5,132.7z"/>
			</g>
			<g id="XMLID_153_">
				<path class="st0" d="M356.2,201.7c-5.9,8-15.5,13.7-26.6,13.7c-20.6,0-35.1-15.7-35.1-41.3c0-25.1,14.4-41.4,35.1-41.4
					c10.6,0,20.2,5.2,26.6,13.9v-41.9h12.2v108.8h-12.2V201.7z M356.2,156.4c-4.4-6.9-13.9-12.7-23.7-12.7
					c-15.8,0-25.3,13-25.3,30.5c0,17.5,9.5,30.3,25.3,30.3c9.8,0,19.2-5.5,23.7-12.4V156.4z"/>
			</g>
		</g>
		<g id="XMLID_151_">
			<path class="st0" d="M301.2,90.1c-2.5,0-4.8,1.1-6.4,2.9l0,0c0,0,0,0,0,0c-4-2-20.9-9.7-44.9-14.8c-12.8-2.7-28.8-4.9-46.5-4.5
				c-1.2-3.3-4.3-5.6-8-5.6c-4,0-7.4,2.8-8.3,6.5l0,0c-12,0.9-24.5,3.1-37,7.2c-25.2,8.3-47.6,23.1-67.1,44.2
				c-1.1-0.5-2.3-0.8-3.7-0.8c-2.4,0-4.6,1-6.2,2.6c-17.9-10.3-25.5-20.5-27.4-29.7c-0.2-0.8-0.3-1.6-0.4-2.4
				c3.8-0.9,6.7-4.3,6.7-8.4c0-2.9-1.4-5.4-3.6-7c6.2-12.6,19.8-23,28.2-28.5c1.5,1.4,3.5,2.2,5.8,2.2c4.7,0,8.6-3.8,8.6-8.6
				c0-4.7-3.8-8.6-8.6-8.6c-4.7,0-8.6,3.8-8.6,8.6c0,0.8,0.1,1.5,0.3,2.2c-8.9,5.8-23.6,17-30.3,31.1c-0.1,0-0.2,0-0.4,0
				c-4.7,0-8.6,3.8-8.6,8.6c0,3.7,2.3,6.8,5.6,8c0.1,1.2,0.3,2.4,0.5,3.7c2.5,12,12.5,23,29.9,32.9c-0.1,0.6-0.2,1.1-0.2,1.7
				c0,1.8,0.6,3.5,1.5,4.8c-11.8,15-22.4,32.7-31.8,52.9c-0.4-0.1-0.8-0.1-1.3-0.1c-4.7,0-8.6,3.8-8.6,8.6c0,4.7,3.8,8.6,8.6,8.6
				c4.7,0,8.6-3.8,8.6-8.6c0-2.6-1.1-4.9-2.9-6.5c9.2-19.8,19.6-37.1,31.1-51.8c1,0.4,2.2,0.7,3.3,0.7c2.5,0,4.8-1.1,6.4-2.9
				c7.5,3.3,15.8,6.5,25.1,9.6v-5.1c-8.7-2.9-16.4-5.9-23.1-8.8c0.1-0.5,0.1-0.9,0.1-1.4c0-1.7-0.5-3.2-1.3-4.6
				c19-20.5,40.7-34.8,65-42.8c12.1-4,24.2-6.1,35.8-7c0,0,0,0,0,0c1.1,3.4,4.3,5.8,8.1,5.8c4.1,0,7.5-2.9,8.4-6.8
				c17.1-0.4,32.6,1.7,45,4.4c23.4,5,40.3,12.7,44,14.5c0,0,0,0,0,0l0,0c-0.1,0.4-0.1,0.9-0.1,1.3c0,4.7,3.8,8.6,8.6,8.6
				s8.6-3.8,8.6-8.6C309.8,94,306,90.1,301.2,90.1z"/>
		</g>
	</g>
	<g>
		<path class="st0" d="M118.8,238.7h7.2v16.1h18.8v-16.1h7.2v37.7h-7.2v-15.3H126v15.3h-7.2V238.7z"/>
		<path class="st0" d="M178.1,276.5V273c-1,1.3-2.3,2.2-3.9,2.9c-1.6,0.6-3.4,1-5.4,1c-2,0-3.8-0.4-5.3-1.2
			c-1.5-0.8-2.7-1.8-3.5-3.2c-0.8-1.4-1.2-2.9-1.2-4.6c0-2.7,1-4.8,2.9-6.3c1.9-1.5,4.6-2.3,8.1-2.3h8.4v-0.8c0-1.7-0.6-3-1.7-3.9
			c-1.1-0.9-2.7-1.4-4.9-1.4c-2.7,0-5.6,0.9-8.6,2.7l-2.5-4.9c2.3-1.3,4.3-2.2,6.2-2.7c1.9-0.6,4-0.8,6.5-0.8c3.7,0,6.6,0.9,8.7,2.7
			c2.1,1.8,3.1,4.3,3.2,7.5l0.1,18.9H178.1z M175.6,270c1.4-1,2.2-2.1,2.4-3.5v-2.6h-7.3c-1.9,0-3.2,0.3-4.1,0.8
			c-0.9,0.6-1.3,1.5-1.3,2.7c0,1.2,0.5,2.2,1.4,2.9c0.9,0.7,2.2,1.1,3.7,1.1C172.5,271.4,174.2,270.9,175.6,270z"/>
		<path class="st0" d="M205.6,253.5c-1.5-0.5-2.9-0.7-4.1-0.7c-1.2,0-2.1,0.2-2.8,0.6c-0.7,0.4-1.1,1.1-1.1,1.9
			c0,0.9,0.4,1.6,1.3,2.1c0.9,0.5,2.3,1,4.2,1.5c2,0.6,3.7,1.2,5,1.8c1.3,0.6,2.4,1.5,3.4,2.6c1,1.2,1.4,2.7,1.4,4.6
			c0,2.8-1.1,5-3.2,6.5c-2.2,1.5-4.9,2.3-8.1,2.3c-2.2,0-4.4-0.4-6.5-1.1c-2.1-0.7-3.9-1.7-5.4-3l2.4-4.9c1.3,1.1,2.8,2,4.6,2.6
			c1.8,0.6,3.5,0.9,5.1,0.9c1.3,0,2.3-0.2,3.1-0.7c0.8-0.4,1.2-1.1,1.2-2c0-1-0.4-1.8-1.3-2.3c-0.9-0.5-2.4-1.1-4.4-1.7
			c-1.9-0.6-3.5-1.1-4.7-1.7c-1.2-0.6-2.3-1.4-3.2-2.5c-0.9-1.1-1.3-2.6-1.3-4.4c0-2.8,1-5,3.1-6.5c2.1-1.5,4.7-2.2,7.8-2.2
			c1.9,0,3.8,0.3,5.6,0.8c1.9,0.5,3.5,1.3,4.9,2.3l-2.5,5.1C208.6,254.6,207.1,254,205.6,253.5z"/>
		<path class="st0" d="M244.4,250.4c1.9,2,2.9,4.7,2.9,8.1v18h-7.1v-16c0-2-0.6-3.6-1.7-4.8c-1.2-1.2-2.7-1.8-4.7-1.8
			c-2.3,0-4.2,0.8-5.6,2.4c-1.4,1.5-2,3.5-2,5.9v14.2h-7v-40h7v16.7c2-3.8,5.4-5.7,10.4-5.8C239.9,247.4,242.5,248.4,244.4,250.4z"
			/>
		<path class="st0" d="M282.8,277.7l-5.7-5.7c-3.4,3.2-7.1,4.7-11.2,4.7c-2.3,0-4.3-0.5-6.2-1.4c-1.9-0.9-3.3-2.2-4.4-3.8
			c-1.1-1.6-1.6-3.5-1.6-5.5c0-2.4,0.7-4.4,2.1-6c1.4-1.6,3.4-3.1,5.8-4.4c-1.2-1.7-2.1-3.2-2.6-4.6c-0.6-1.4-0.8-2.7-0.8-4.1
			c0-2.6,0.9-4.7,2.7-6.3c1.8-1.6,4.3-2.4,7.3-2.4c1.9,0,3.6,0.3,5.1,1c1.5,0.7,2.7,1.6,3.5,2.9c0.8,1.2,1.2,2.7,1.2,4.2
			c0,2.3-0.8,4.3-2.4,5.8c-1.6,1.5-3.8,3-6.7,4.4c2.1,2.3,4.5,4.8,7.3,7.6c1.2-1.8,2.2-4,3.1-6.6l4.6,3.4c-1,2.6-2.3,5-3.8,7l6,5.8
			L282.8,277.7z M273.3,268.3c-3.7-3.6-6.6-6.7-8.7-9.1c-1.6,0.9-2.9,1.9-3.7,2.9c-0.9,1-1.3,2.1-1.3,3.4c0,1.8,0.6,3.2,1.9,4.3
			c1.3,1.1,2.8,1.7,4.7,1.7C268.6,271.5,271,270.5,273.3,268.3z M266.4,253.3c2-1,3.6-2.1,4.6-3.1c1.1-1,1.6-2.2,1.6-3.6
			c0-1.1-0.4-2.1-1.2-2.8c-0.8-0.7-1.8-1.1-3-1.1c-1.4,0-2.5,0.4-3.3,1.2c-0.8,0.8-1.3,1.9-1.3,3.1
			C263.8,248.9,264.7,250.9,266.4,253.3z"/>
		<path class="st1" d="M317.1,257.7h6.3v14.3c-2,1.5-4.3,2.7-7,3.6c-2.7,0.9-5.3,1.4-7.9,1.4c-3.7,0-7.1-0.9-10.1-2.6
			c-3-1.7-5.4-4.1-7.2-7c-1.8-3-2.6-6.2-2.6-9.8c0-3.6,0.9-6.9,2.7-9.8c1.8-2.9,4.3-5.2,7.4-7c3.1-1.7,6.6-2.6,10.3-2.6
			c2.7,0,5.4,0.5,8,1.5c2.6,1,4.9,2.3,6.8,4l-4.1,5.3c-1.4-1.4-3.1-2.4-5-3.2c-1.9-0.8-3.8-1.1-5.7-1.1c-2.4,0-4.6,0.6-6.6,1.7
			c-2,1.1-3.6,2.7-4.7,4.7c-1.2,2-1.7,4.1-1.7,6.5c0,2.4,0.6,4.5,1.8,6.5c1.2,2,2.7,3.5,4.7,4.7c2,1.2,4.2,1.7,6.6,1.7
			c1.3,0,2.7-0.2,4.1-0.6c1.4-0.4,2.8-1,4.1-1.8V257.7z"/>
		<path class="st1" d="M359.1,240.8c3.1,1.7,5.5,4,7.3,7c1.8,2.9,2.6,6.2,2.6,9.8c0,3.6-0.9,6.9-2.6,9.8c-1.8,3-4.2,5.3-7.3,7
			c-3.1,1.7-6.5,2.6-10.2,2.6s-7.1-0.9-10.2-2.6c-3.1-1.7-5.5-4.1-7.3-7c-1.8-3-2.6-6.2-2.6-9.8c0-3.6,0.9-6.9,2.6-9.8
			c1.8-2.9,4.2-5.3,7.3-7c3.1-1.7,6.5-2.5,10.2-2.5S356,239.1,359.1,240.8z M342.6,246.4c-2,1.1-3.5,2.7-4.7,4.6
			c-1.2,2-1.7,4.1-1.7,6.5c0,2.4,0.6,4.5,1.8,6.5c1.2,2,2.7,3.5,4.7,4.7s4.1,1.7,6.4,1.7c2.3,0,4.4-0.6,6.3-1.7
			c1.9-1.2,3.5-2.7,4.6-4.7c1.1-2,1.7-4.2,1.7-6.5c0-2.4-0.6-4.5-1.7-6.5c-1.1-2-2.7-3.5-4.6-4.6c-1.9-1.1-4-1.7-6.3-1.7
			C346.7,244.7,344.5,245.3,342.6,246.4z"/>
	</g>
</g>
</svg>
